<svg width="66" height="65" viewBox="0 0 66 65" fill="none" xmlns="http://www.w3.org/2000/svg">
<g id="Vector">
<path d="M0.5 32.5C0.5 14.5507 15.0507 0 33 0C50.9493 0 65.5 14.5507 65.5 32.5C65.5 50.4493 50.9493 65 33 65C15.0507 65 0.5 50.4493 0.5 32.5Z" fill="#FF5500"/>
<path d="M21.9417 46.6016C19.9409 45.0838 18.3795 43.2015 17.2574 40.9612C16.0813 38.6281 15.5 36.0631 15.5 33.2727C15.5 30.9728 16.007 28.7458 17.0276 26.5983C18.4201 23.6356 20.502 21.2959 23.2733 19.5792C25.9838 17.8891 29.012 17.0341 32.3579 17.0009C35.616 16.9678 38.6036 17.8029 41.3277 19.4997C44.0517 21.1965 46.1201 23.4301 47.526 26.2073C48.7022 28.5072 49.2835 30.9463 49.2835 33.5246C49.2835 36.4276 48.5534 39.1385 47.1002 41.6704C45.9781 43.6257 44.5384 45.2694 42.7809 46.6149C42.4294 46.8668 38.3265 49.7102 36.4677 46.8668C35.2577 44.4674 34.7508 41.7632 36.1162 39.2313C36.3325 38.8336 36.6028 38.4624 36.9138 38.1377C37.61 37.402 38.3603 36.938 39.3539 36.8054C40.699 36.6265 43.2068 37.4218 43.396 35.1352C43.4163 34.8899 43.396 34.6381 43.3217 34.3995L43.3014 34.3398C43.227 34.1078 43.1054 33.8891 42.9499 33.7035C42.8012 33.5246 42.6119 33.3721 42.4159 33.2661C40.9559 32.4972 40.2664 33.9355 39.2458 34.6513C38.8808 34.9098 38.4684 35.1484 38.0291 35.1948C37.0625 35.2876 36.3122 34.5917 36.8597 33.5577C37.0692 33.1667 37.3261 32.7955 37.6438 32.4972C38.5698 31.629 40.0907 31.2909 39.7662 29.5875C39.7189 29.3556 39.6378 29.1236 39.5094 28.9247C39.3809 28.7193 39.212 28.5337 39.0227 28.3945L38.9754 28.3614C38.7794 28.2288 38.5563 28.136 38.3265 28.0962C38.1034 28.0565 37.8736 28.0631 37.6505 28.1095C35.6227 28.5735 36.5826 31.0855 35.4875 32.3315C34.9873 32.9015 33.8991 33.7102 33.4192 32.5768C33.2975 32.2851 33.2502 31.9537 33.2434 31.6356C33.2434 31.2313 33.284 30.8203 33.3989 30.4293C33.7504 29.2164 34.744 28.1161 33.6287 26.9165C33.4732 26.7441 33.2772 26.6049 33.0744 26.5121C32.8649 26.4193 32.6418 26.3663 32.412 26.3597H32.3917C32.1619 26.3597 31.9253 26.4193 31.709 26.5121C31.4995 26.6049 31.3102 26.7507 31.1548 26.9165C30.0395 28.1161 31.0331 29.2164 31.3846 30.4293C31.4995 30.8203 31.5468 31.2313 31.5401 31.6356C31.5401 31.9537 31.486 32.2851 31.3643 32.5768C30.8844 33.7102 29.7894 32.9015 29.2959 32.3315C28.2009 31.0788 29.1607 28.5668 27.1329 28.1095C26.9099 28.0565 26.68 28.0498 26.457 28.0962C26.2272 28.1426 26.0041 28.2288 25.8081 28.3614L25.7608 28.3945C25.5715 28.5337 25.4025 28.7193 25.2741 28.9247C25.1524 29.1236 25.0645 29.3556 25.0172 29.5875C24.6928 31.2976 26.2204 31.629 27.1397 32.4972C27.4574 32.7955 27.7142 33.1667 27.9238 33.5577C28.4713 34.5917 27.721 35.281 26.7544 35.1948C26.315 35.1551 25.9027 34.9098 25.5377 34.6513C24.517 33.9289 23.8208 32.4906 22.3675 33.2661C22.1648 33.3721 21.9823 33.5246 21.8336 33.7035C21.6781 33.8891 21.5564 34.1078 21.4821 34.3398L21.4618 34.3995C21.3942 34.6381 21.3672 34.8899 21.3874 35.1352C21.5767 37.4152 24.0844 36.6199 25.4296 36.8054C26.4232 36.938 27.1802 37.402 27.8697 38.1377C28.1739 38.4624 28.451 38.8336 28.6673 39.2313C29.9448 41.5909 29.5866 44.0962 28.5592 46.3697C26.822 50.1079 22.1242 46.7342 21.9485 46.6083L21.9417 46.6016Z" fill="white"/>
</g>
</svg>
