<svg width="150" height="30" viewBox="0 0 150 30" fill="none" xmlns="http://www.w3.org/2000/svg">
<g id="Group 2">
<path id="Vector" d="M33.5416 10.8667C34.9882 12.4799 35.7116 14.6638 35.7116 17.4187V29.5885H27.6581V18.4609C27.6581 17.5657 27.3978 16.8651 26.873 16.3591C26.3481 15.8488 25.6513 15.598 24.778 15.598C23.9047 15.598 23.1726 15.8531 22.6654 16.3591C22.1538 16.8695 21.9024 17.5701 21.9024 18.4609V29.5885H13.8489V18.4609C13.8489 17.5657 13.5887 16.8651 13.0638 16.3591C12.539 15.8488 11.8421 15.598 10.9689 15.598C10.0956 15.598 9.36345 15.8531 8.85624 16.3591C8.34463 16.8695 8.09323 17.5701 8.09323 18.4609V29.5885H3.05176e-05V8.59626H8.08882V11.4246C8.671 10.5294 9.4693 9.81151 10.4749 9.26659C11.4805 8.72168 12.6669 8.44922 14.0253 8.44922C15.5072 8.44922 16.8171 8.7779 17.9594 9.43525C19.1018 10.0926 20.0103 11.0181 20.6939 12.2074C21.4481 11.1176 22.4052 10.218 23.574 9.50878C24.7383 8.79952 26.0262 8.44922 27.4375 8.44922C30.0618 8.44922 32.095 9.25362 33.5416 10.8667Z" fill="#FF5500"/>
<path id="Vector_2" d="M72.5831 4.2166C71.9745 4.2166 71.5158 4.2858 71.1982 4.42851C70.8807 4.57123 70.6646 4.81341 70.5411 5.15507H73.4917V9.28518H70.4661V29.5897H62.3773V9.28518H60.1897V5.15507H62.3773C62.4258 3.52032 63.2682 2.24885 64.9089 1.34931C66.5496 0.449771 68.8519 0 71.8157 0C72.1553 0 72.7154 0.0129742 73.4917 0.0432472V4.25985C73.055 4.22958 72.7507 4.2166 72.5787 4.2166H72.5831Z" fill="#FF5500"/>
<path id="Vector_3" d="M119.59 27.989C117.936 27.1457 116.644 25.9348 115.709 24.3519C114.774 22.7734 114.306 20.9224 114.306 18.799C114.306 16.6755 114.774 14.8246 115.709 13.246C116.644 11.6675 117.936 10.4566 119.59 9.60894C121.244 8.76562 123.101 8.3418 125.165 8.3418C127.229 8.3418 129.086 8.76562 130.74 9.60894C132.393 10.4523 133.686 11.6675 134.621 13.246C135.556 14.8246 136.023 16.6755 136.023 18.799C136.023 20.9224 135.556 22.7734 134.621 24.3519C133.686 25.9304 132.393 27.1457 130.74 27.989C129.086 28.8323 127.229 29.2562 125.165 29.2562C123.101 29.2562 121.244 28.8367 119.59 27.989ZM127.061 21.4241C127.573 20.8316 127.824 19.958 127.824 18.8033C127.824 17.6486 127.568 16.7707 127.061 16.1825C126.55 15.59 125.919 15.2959 125.165 15.2959C124.411 15.2959 123.78 15.59 123.268 16.1825C122.757 16.775 122.501 17.6486 122.501 18.8033C122.501 19.958 122.748 20.8359 123.246 21.4241C123.745 22.0166 124.38 22.3106 125.16 22.3106C125.941 22.3106 126.545 22.0166 127.057 21.4241H127.061Z" fill="#FF5500"/>
<path id="Vector_4" d="M41.8417 27.6644C40.5362 26.6741 39.5174 25.4458 38.7853 23.9841C38.0179 22.4618 37.6385 20.7881 37.6385 18.9674C37.6385 17.4667 37.9693 16.0136 38.6353 14.6124C39.5439 12.6793 40.9023 11.1526 42.7106 10.0325C44.4792 8.92974 46.4551 8.37185 48.6382 8.35023C50.7641 8.3286 52.7135 8.87352 54.4909 9.98065C56.2684 11.0878 57.618 12.5452 58.5353 14.3573C59.3028 15.8579 59.6821 17.4494 59.6821 19.1317C59.6821 21.026 59.2057 22.7948 58.2575 24.4468C57.5253 25.7226 56.5859 26.7952 55.4392 27.6731C55.2098 27.8374 52.5327 29.6927 51.3198 27.8374C50.5303 26.2719 50.1996 24.5074 51.0905 22.8553C51.2316 22.5958 51.408 22.3537 51.6109 22.1418C52.0652 21.6617 52.5547 21.359 53.2031 21.2725C54.0808 21.1557 55.717 21.6747 55.8405 20.1827C55.8538 20.0226 55.8405 19.8583 55.792 19.7026L55.7788 19.6637C55.7303 19.5123 55.6509 19.3696 55.5494 19.2485C55.4524 19.1317 55.3289 19.0323 55.201 18.9631C54.2484 18.4614 53.7985 19.3999 53.1325 19.867C52.8943 20.0356 52.6253 20.1913 52.3386 20.2216C51.7079 20.2821 51.2184 19.828 51.5756 19.1534C51.7123 18.8982 51.8799 18.656 52.0872 18.4614C52.6915 17.8949 53.6838 17.6743 53.4721 16.5629C53.4412 16.4115 53.3883 16.2601 53.3045 16.1304C53.2207 15.9963 53.1105 15.8752 52.987 15.7844L52.9561 15.7628C52.8282 15.6763 52.6826 15.6158 52.5327 15.5898C52.3871 15.5639 52.2372 15.5682 52.0916 15.5985C50.7685 15.9012 51.3948 17.5403 50.6803 18.3533C50.3539 18.7252 49.6438 19.2528 49.3307 18.5133C49.2513 18.323 49.2204 18.1068 49.216 17.8992C49.216 17.6354 49.2425 17.3673 49.3175 17.1121C49.5468 16.3207 50.1951 15.6028 49.4674 14.82C49.366 14.7076 49.2381 14.6167 49.1058 14.5562C48.969 14.4957 48.8235 14.4611 48.6735 14.4567H48.6603C48.5103 14.4567 48.356 14.4957 48.2148 14.5562C48.0781 14.6167 47.9546 14.7119 47.8532 14.82C47.1255 15.6028 47.7738 16.3207 48.0031 17.1121C48.0781 17.3673 48.109 17.6354 48.1046 17.8992C48.1046 18.1068 48.0693 18.323 47.9899 18.5133C47.6768 19.2528 46.9623 18.7252 46.6403 18.3533C45.9258 17.5359 46.5521 15.8969 45.229 15.5985C45.0834 15.5639 44.9335 15.5595 44.7879 15.5898C44.638 15.6201 44.4924 15.6763 44.3645 15.7628L44.3336 15.7844C44.2101 15.8752 44.0999 15.9963 44.0161 16.1304C43.9367 16.2601 43.8794 16.4115 43.8485 16.5629C43.6368 17.6786 44.6335 17.8949 45.2334 18.4614C45.4407 18.656 45.6083 18.8982 45.745 19.1534C46.1022 19.828 45.6127 20.2778 44.982 20.2216C44.6953 20.1956 44.4263 20.0356 44.1881 19.867C43.5221 19.3956 43.0678 18.4571 42.1196 18.9631C41.9873 19.0323 41.8682 19.1317 41.7712 19.2485C41.6697 19.3696 41.5903 19.5123 41.5418 19.6637L41.5286 19.7026C41.4845 19.8583 41.4668 20.0226 41.4801 20.1827C41.6036 21.6704 43.2398 21.1514 44.1175 21.2725C44.7659 21.359 45.2598 21.6617 45.7097 22.1418C45.9082 22.3537 46.089 22.5958 46.2301 22.8553C47.0637 24.3949 46.83 26.0297 46.1596 27.5131C45.0261 29.9522 41.9608 27.7509 41.8461 27.6687L41.8417 27.6644Z" fill="black"/>
<path id="Vector_5" d="M110.05 10.8667C111.497 12.4799 112.22 14.6638 112.22 17.4187V29.5885H104.166V18.4609C104.166 17.5657 103.906 16.8651 103.381 16.3591C102.857 15.8488 102.16 15.598 101.286 15.598C100.413 15.598 99.681 15.8531 99.1738 16.3591C98.6622 16.8695 98.4108 17.5701 98.4108 18.4609V29.5885H90.3573V18.4609C90.3573 17.5657 90.097 16.8651 89.5722 16.3591C89.0474 15.8488 88.3505 15.598 87.4772 15.598C86.604 15.598 85.8718 15.8531 85.3646 16.3591C84.853 16.8695 84.6016 17.5701 84.6016 18.4609V29.5885H76.5128V8.59626H84.6016V11.4246C85.1838 10.5294 85.9821 9.81151 86.9877 9.26659C87.9933 8.72168 89.1797 8.44922 90.5381 8.44922C92.02 8.44922 93.3299 8.7779 94.4722 9.43525C95.6145 10.0926 96.5231 11.0181 97.2067 12.2074C97.9609 11.1176 98.918 10.218 100.087 9.50878C101.251 8.79952 102.539 8.44922 103.95 8.44922C106.575 8.44922 108.608 9.25362 110.054 10.8667H110.05Z" fill="#FF5500"/>
<path id="Vector_6" d="M149.091 4.2166C148.483 4.2166 148.024 4.2858 147.707 4.42851C147.389 4.57123 147.173 4.81341 147.049 5.15507H150V9.28518H146.974V29.5897H138.886V9.28518H136.698V5.15507H138.886C138.934 3.52032 139.777 2.24885 141.417 1.34931C143.058 0.449771 145.36 0 148.324 0C148.664 0 149.224 0.0129742 150 0.0432472V4.25985C149.563 4.22958 149.259 4.2166 149.087 4.2166H149.091Z" fill="#FF5500"/>
</g>
</svg>
