<svg width="84" height="67" viewBox="0 0 84 67" fill="none" xmlns="http://www.w3.org/2000/svg">
<g id="Group 2">
<path id="Vector" d="M38.5666 12.4878C40.1868 14.3414 40.9969 16.8509 40.9969 20.0163V33.9999H31.977V21.2139C31.977 20.1853 31.6856 19.3802 31.0977 18.7988C30.5099 18.2124 29.7294 17.9242 28.7514 17.9242C27.7733 17.9242 26.9533 18.2174 26.3852 18.7988C25.8122 19.3852 25.5307 20.1902 25.5307 21.2139V33.9999H16.5107V21.2139C16.5107 20.1853 16.2193 19.3802 15.6315 18.7988C15.0436 18.2124 14.2632 17.9242 13.2851 17.9242C12.307 17.9242 11.487 18.2174 10.919 18.7988C10.346 19.3852 10.0644 20.1902 10.0644 21.2139V33.9999H1V9.87892H10.0595V13.1288C10.7115 12.1002 11.6056 11.2753 12.7318 10.6492C13.8581 10.023 15.1869 9.70996 16.7083 9.70996C18.3681 9.70996 19.8352 10.0876 21.1146 10.843C22.3939 11.5983 23.4115 12.6617 24.1772 14.0283C25.0219 12.776 26.0938 11.7424 27.4028 10.9274C28.7069 10.1125 30.1493 9.70996 31.73 9.70996C34.6692 9.70996 36.9464 10.6343 38.5666 12.4878Z" fill="#FF5500"/>
<path id="Vector_2" d="M82.2932 4.84507C81.6115 4.84507 81.0978 4.92458 80.7421 5.08857C80.3865 5.25256 80.1444 5.53084 80.0061 5.92341H83.3108V10.6691H79.9222V34H70.8627V10.6691H68.4126V5.92341H70.8627C70.917 4.04502 71.8605 2.58404 73.6981 1.55042C75.5357 0.516808 78.1142 0 81.4337 0C81.8141 0 82.4414 0.0149079 83.3108 0.0496931V4.89477C82.8218 4.85998 82.4809 4.84507 82.2883 4.84507H82.2932Z" fill="#FF5500"/>
<path id="Vector_3" d="M48.2508 65.1591C46.3984 64.19 44.9511 62.7986 43.9038 60.9799C42.8566 59.1661 42.333 57.0392 42.333 54.5993C42.333 52.1594 42.8566 50.0325 43.9038 48.2187C44.9511 46.4049 46.3984 45.0135 48.2508 44.0395C50.1032 43.0705 52.1828 42.5835 54.4946 42.5835C56.8064 42.5835 58.886 43.0705 60.7384 44.0395C62.5908 45.0085 64.0382 46.4049 65.0854 48.2187C66.1326 50.0325 66.6562 52.1594 66.6562 54.5993C66.6562 57.0392 66.1326 59.1661 65.0854 60.9799C64.0382 62.7937 62.5908 64.19 60.7384 65.1591C58.886 66.1281 56.8064 66.6151 54.4946 66.6151C52.1828 66.6151 50.1032 66.133 48.2508 65.1591ZM56.6187 57.6156C57.1917 56.9349 57.4733 55.9311 57.4733 54.6042C57.4733 53.2774 57.1867 52.2687 56.6187 51.5928C56.0457 50.9121 55.3393 50.5741 54.4946 50.5741C53.6499 50.5741 52.9435 50.9121 52.3705 51.5928C51.7975 52.2736 51.511 53.2774 51.511 54.6042C51.511 55.9311 51.7876 56.9398 52.3458 57.6156C52.904 58.2964 53.6153 58.6344 54.4897 58.6344C55.364 58.6344 56.0407 58.2964 56.6137 57.6156H56.6187Z" fill="#FF5500"/>
<path id="Vector_4" d="M47.8619 31.7898C46.3997 30.6519 45.2586 29.2406 44.4386 27.5609C43.5791 25.8118 43.1543 23.8886 43.1543 21.7966C43.1543 20.0722 43.5248 18.4025 44.2707 16.7925C45.2883 14.5712 46.8097 12.817 48.835 11.53C50.8158 10.2628 53.0288 9.62175 55.474 9.5969C57.8549 9.57206 60.0383 10.1982 62.029 11.4703C64.0197 12.7425 65.5312 14.4171 66.5587 16.4993C67.4182 18.2236 67.843 20.0523 67.843 21.9854C67.843 24.1619 67.3095 26.1944 66.2475 28.0927C65.4275 29.5586 64.3753 30.791 63.091 31.7998C62.8342 31.9886 59.8357 34.1204 58.4773 31.9886C57.5931 30.1897 57.2226 28.1622 58.2205 26.264C58.3785 25.9658 58.5761 25.6875 58.8033 25.444C59.3121 24.8924 59.8604 24.5446 60.5866 24.4452C61.5696 24.311 63.4022 24.9073 63.5405 23.1929C63.5554 23.0091 63.5405 22.8202 63.4862 22.6413L63.4714 22.5966C63.417 22.4227 63.3281 22.2587 63.2145 22.1196C63.1058 21.9854 62.9675 21.8711 62.8243 21.7916C61.7573 21.2151 61.2534 22.2935 60.5075 22.8302C60.2408 23.024 59.9395 23.2029 59.6184 23.2376C58.912 23.3072 58.3637 22.7854 58.7638 22.0102C58.917 21.717 59.1047 21.4388 59.3368 21.2151C60.0136 20.5642 61.125 20.3107 60.8879 19.0336C60.8533 18.8597 60.7941 18.6858 60.7002 18.5367C60.6063 18.3826 60.4828 18.2435 60.3445 18.1391L60.31 18.1143C60.1667 18.0149 60.0037 17.9453 59.8357 17.9155C59.6727 17.8857 59.5048 17.8907 59.3418 17.9255C57.8599 18.2733 58.5613 20.1567 57.7611 21.0909C57.3955 21.5183 56.6002 22.1245 56.2495 21.2748C56.1606 21.0561 56.126 20.8077 56.1211 20.5691C56.1211 20.266 56.1507 19.9579 56.2347 19.6647C56.4916 18.7553 57.2177 17.9304 56.4026 17.031C56.289 16.9018 56.1458 16.7974 55.9976 16.7279C55.8444 16.6583 55.6814 16.6185 55.5135 16.6136H55.4987C55.3307 16.6136 55.1578 16.6583 54.9998 16.7279C54.8466 16.7974 54.7083 16.9068 54.5947 17.031C53.7796 17.9304 54.5058 18.7553 54.7626 19.6647C54.8466 19.9579 54.8812 20.266 54.8763 20.5691C54.8763 20.8077 54.8367 21.0561 54.7478 21.2748C54.3971 22.1245 53.5969 21.5183 53.2363 21.0909C52.436 20.1517 53.1375 18.2683 51.6556 17.9255C51.4926 17.8857 51.3246 17.8807 51.1616 17.9155C50.9936 17.9503 50.8306 18.0149 50.6874 18.1143L50.6528 18.1391C50.5145 18.2435 50.391 18.3826 50.2971 18.5367C50.2082 18.6858 50.144 18.8597 50.1094 19.0336C49.8723 20.3157 50.9887 20.5642 51.6605 21.2151C51.8927 21.4388 52.0804 21.717 52.2335 22.0102C52.6336 22.7854 52.0853 23.3023 51.3789 23.2376C51.0579 23.2078 50.7565 23.024 50.4898 22.8302C49.7439 22.2885 49.2351 21.2102 48.1731 21.7916C48.0249 21.8711 47.8915 21.9854 47.7828 22.1196C47.6692 22.2587 47.5803 22.4227 47.526 22.5966L47.5111 22.6413C47.4617 22.8202 47.442 23.0091 47.4568 23.1929C47.5951 24.9024 49.4277 24.3061 50.4108 24.4452C51.1369 24.5446 51.6901 24.8924 52.194 25.444C52.4163 25.6875 52.6188 25.9658 52.7769 26.264C53.7105 28.033 53.4487 29.9114 52.6978 31.6159C51.4283 34.4186 47.9952 31.8892 47.8668 31.7948L47.8619 31.7898Z" fill="black"/>
<path id="Vector_5" d="M37.5617 45.4878C39.1819 47.3414 39.992 49.8509 39.992 53.0163V66.9999H30.9721V54.2139C30.9721 53.1853 30.6806 52.3802 30.0928 51.7988C29.505 51.2124 28.7245 50.9242 27.7464 50.9242C26.7684 50.9242 25.9484 51.2174 25.3803 51.7988C24.8073 52.3852 24.5257 53.1902 24.5257 54.2139V66.9999H15.5058V54.2139C15.5058 53.1853 15.2143 52.3802 14.6265 51.7988C14.0387 51.2124 13.2582 50.9242 12.2802 50.9242C11.3021 50.9242 10.4821 51.2174 9.91403 51.7988C9.34102 52.3852 9.05946 53.1902 9.05946 54.2139V66.9999H0V42.8789H9.05946V46.1288C9.7115 45.1002 10.6056 44.2753 11.7318 43.6492C12.8581 43.023 14.1869 42.71 15.7083 42.71C17.3681 42.71 18.8352 43.0876 20.1146 43.843C21.3939 44.5983 22.4115 45.6617 23.1772 47.0283C24.0219 45.776 25.0938 44.7424 26.4028 43.9274C27.7069 43.1125 29.1493 42.71 30.73 42.71C33.6692 42.71 35.9464 43.6343 37.5666 45.4878H37.5617Z" fill="#FF5500"/>
<path id="Vector_6" d="M81.2888 37.8451C80.6071 37.8451 80.0934 37.9246 79.7377 38.0886C79.3821 38.2526 79.14 38.5308 79.0017 38.9234H82.3064V43.6691H78.9178V67H69.8583V43.6691H67.4082V38.9234H69.8583C69.9126 37.045 70.8561 35.584 72.6937 34.5504C74.5313 33.5168 77.1098 33 80.4293 33C80.8097 33 81.437 33.0149 82.3064 33.0497V37.8948C81.8174 37.86 81.4765 37.8451 81.2839 37.8451H81.2888Z" fill="#FF5500"/>
</g>
</svg>
