<svg width="32" height="32" viewBox="0 0 32 32" fill="none" xmlns="http://www.w3.org/2000/svg">
<g id="tabler:text-recognition">
<path id="Vector" d="M5.3335 10.6663V7.99967C5.3335 7.29243 5.61445 6.61415 6.11454 6.11406C6.61464 5.61396 7.29292 5.33301 8.00016 5.33301H10.6668M5.3335 21.333V23.9997C5.3335 24.7069 5.61445 25.3852 6.11454 25.8853C6.61464 26.3854 7.29292 26.6663 8.00016 26.6663H10.6668M21.3335 5.33301H24.0002C24.7074 5.33301 25.3857 5.61396 25.8858 6.11406C26.3859 6.61415 26.6668 7.29243 26.6668 7.99967V10.6663M21.3335 26.6663H24.0002C24.7074 26.6663 25.3857 26.3854 25.8858 25.8853C26.3859 25.3852 26.6668 24.7069 26.6668 23.9997V21.333M16.0002 21.333V11.9997M12.0002 11.9997H20.0002" stroke="#1A1A1A" stroke-width="1.5" stroke-linecap="round" stroke-linejoin="round"/>
</g>
</svg>
