<svg width="32" height="32" viewBox="0 0 32 32" fill="none" xmlns="http://www.w3.org/2000/svg">
<g id="tabler:mood-smile">
<g id="Group">
<path id="Vector" d="M11.9998 13.3333H12.0131M19.9998 13.3333H20.0131M3.99976 16C3.99976 17.5759 4.31014 19.1363 4.9132 20.5922C5.51626 22.0481 6.40017 23.371 7.51447 24.4853C8.62878 25.5996 9.95165 26.4835 11.4076 27.0866C12.8635 27.6896 14.4239 28 15.9998 28C17.5756 28 19.1361 27.6896 20.592 27.0866C22.0479 26.4835 23.3707 25.5996 24.485 24.4853C25.5993 23.371 26.4833 22.0481 27.0863 20.5922C27.6894 19.1363 27.9998 17.5759 27.9998 16C27.9998 14.4241 27.6894 12.8637 27.0863 11.4078C26.4833 9.95189 25.5993 8.62902 24.485 7.51472C23.3707 6.40042 22.0479 5.5165 20.592 4.91345C19.1361 4.31039 17.5756 4 15.9998 4C14.4239 4 12.8635 4.31039 11.4076 4.91345C9.95165 5.5165 8.62878 6.40042 7.51447 7.51472C6.40017 8.62902 5.51626 9.95189 4.9132 11.4078C4.31014 12.8637 3.99976 14.4241 3.99976 16Z" stroke="#1A1A1A" stroke-width="1.5" stroke-linecap="round" stroke-linejoin="round"/>
<path id="Vector_2" d="M12.6665 20C13.101 20.4435 13.6196 20.7958 14.192 21.0363C14.7644 21.2768 15.379 21.4007 15.9998 21.4007C16.6207 21.4007 17.2353 21.2768 17.8077 21.0363C18.38 20.7958 18.8987 20.4435 19.3332 20" stroke="#1A1A1A" stroke-width="1.5" stroke-linecap="round" stroke-linejoin="round"/>
</g>
</g>
</svg>
