<svg width="32" height="32" viewBox="0 0 32 32" fill="none" xmlns="http://www.w3.org/2000/svg">
<g id="tabler:camera">
<g id="Group">
<path id="Vector" d="M6.66764 9.33301H8.00098C8.70822 9.33301 9.3865 9.05206 9.88659 8.55196C10.3867 8.05186 10.6676 7.37359 10.6676 6.66634C10.6676 6.31272 10.8081 5.97358 11.0582 5.72353C11.3082 5.47348 11.6474 5.33301 12.001 5.33301H20.001C20.3546 5.33301 20.6937 5.47348 20.9438 5.72353C21.1938 5.97358 21.3343 6.31272 21.3343 6.66634C21.3343 7.37359 21.6153 8.05186 22.1154 8.55196C22.6155 9.05206 23.2937 9.33301 24.001 9.33301H25.3343C26.0416 9.33301 26.7198 9.61396 27.2199 10.1141C27.72 10.6142 28.001 11.2924 28.001 11.9997V23.9997C28.001 24.7069 27.72 25.3852 27.2199 25.8853C26.7198 26.3854 26.0416 26.6663 25.3343 26.6663H6.66764C5.9604 26.6663 5.28212 26.3854 4.78203 25.8853C4.28193 25.3852 4.00098 24.7069 4.00098 23.9997V11.9997C4.00098 11.2924 4.28193 10.6142 4.78203 10.1141C5.28212 9.61396 5.9604 9.33301 6.66764 9.33301Z" stroke="#1A1A1A" stroke-width="1.5" stroke-linecap="round" stroke-linejoin="round"/>
<path id="Vector_2" d="M12.0005 17.3335C12.0005 18.3944 12.4219 19.4118 13.1721 20.1619C13.9222 20.9121 14.9396 21.3335 16.0005 21.3335C17.0614 21.3335 18.0788 20.9121 18.8289 20.1619C19.5791 19.4118 20.0005 18.3944 20.0005 17.3335C20.0005 16.2726 19.5791 15.2552 18.8289 14.5051C18.0788 13.7549 17.0614 13.3335 16.0005 13.3335C14.9396 13.3335 13.9222 13.7549 13.1721 14.5051C12.4219 15.2552 12.0005 16.2726 12.0005 17.3335Z" stroke="#1A1A1A" stroke-width="1.5" stroke-linecap="round" stroke-linejoin="round"/>
</g>
</g>
</svg>
