<svg width="32" height="32" viewBox="0 0 32 32" fill="none" xmlns="http://www.w3.org/2000/svg">
<g id="tabler:dots">
<path id="Vector" d="M5.3335 15.9993C5.3335 16.353 5.47397 16.6921 5.72402 16.9422C5.97407 17.1922 6.31321 17.3327 6.66683 17.3327C7.02045 17.3327 7.35959 17.1922 7.60964 16.9422C7.85969 16.6921 8.00016 16.353 8.00016 15.9993C8.00016 15.6457 7.85969 15.3066 7.60964 15.0565C7.35959 14.8065 7.02045 14.666 6.66683 14.666C6.31321 14.666 5.97407 14.8065 5.72402 15.0565C5.47397 15.3066 5.3335 15.6457 5.3335 15.9993ZM14.6668 15.9993C14.6668 16.353 14.8073 16.6921 15.0574 16.9422C15.3074 17.1922 15.6465 17.3327 16.0002 17.3327C16.3538 17.3327 16.6929 17.1922 16.943 16.9422C17.193 16.6921 17.3335 16.353 17.3335 15.9993C17.3335 15.6457 17.193 15.3066 16.943 15.0565C16.6929 14.8065 16.3538 14.666 16.0002 14.666C15.6465 14.666 15.3074 14.8065 15.0574 15.0565C14.8073 15.3066 14.6668 15.6457 14.6668 15.9993ZM24.0002 15.9993C24.0002 16.353 24.1406 16.6921 24.3907 16.9422C24.6407 17.1922 24.9799 17.3327 25.3335 17.3327C25.6871 17.3327 26.0263 17.1922 26.2763 16.9422C26.5264 16.6921 26.6668 16.353 26.6668 15.9993C26.6668 15.6457 26.5264 15.3066 26.2763 15.0565C26.0263 14.8065 25.6871 14.666 25.3335 14.666C24.9799 14.666 24.6407 14.8065 24.3907 15.0565C24.1406 15.3066 24.0002 15.6457 24.0002 15.9993Z" fill="#1A1A1A"/>
</g>
</svg>
