<svg width="390" height="98" viewBox="0 0 390 98" fill="none" xmlns="http://www.w3.org/2000/svg">
<g filter="url(#filter0_d_642_6662)">
<path fill-rule="evenodd" clip-rule="evenodd" d="M153.866 24.654C150.722 16.3959 143.837 9 135 9L1 9C0.447715 9 0 9.44771 0 10V86C0 86.5523 0.447704 87 0.999988 87H389C389.552 87 390 86.5523 390 86V10C390 9.44772 389.552 9 389 9H255C246.163 9 239.278 16.3959 236.134 24.654C229.824 41.2258 213.787 53 195 53C176.213 53 160.176 41.2258 153.866 24.654Z" fill="white"/>
</g>
<defs>
<filter id="filter0_d_642_6662" x="-10" y="0" width="410" height="98" filterUnits="userSpaceOnUse" color-interpolation-filters="sRGB">
<feFlood flood-opacity="0" result="BackgroundImageFix"/>
<feColorMatrix in="SourceAlpha" type="matrix" values="0 0 0 0 0 0 0 0 0 0 0 0 0 0 0 0 0 0 127 0" result="hardAlpha"/>
<feOffset dy="1"/>
<feGaussianBlur stdDeviation="5"/>
<feComposite in2="hardAlpha" operator="out"/>
<feColorMatrix type="matrix" values="0 0 0 0 0 0 0 0 0 0 0 0 0 0 0 0 0 0 0.15 0"/>
<feBlend mode="normal" in2="BackgroundImageFix" result="effect1_dropShadow_642_6662"/>
<feBlend mode="normal" in="SourceGraphic" in2="effect1_dropShadow_642_6662" result="shape"/>
</filter>
</defs>
</svg>
