<svg width="29" height="28" viewBox="0 0 29 28" fill="none" xmlns="http://www.w3.org/2000/svg">
<g id="fluent-emoji-high-contrast:lizard">
<g id="Group">
<path id="Vector" d="M12.3492 6.41758C12.5349 6.41758 12.7129 6.34383 12.8442 6.21255C12.9755 6.08128 13.0492 5.90323 13.0492 5.71758C13.0492 5.53193 12.9755 5.35388 12.8442 5.2226C12.7129 5.09133 12.5349 5.01758 12.3492 5.01758C12.1636 5.01758 11.9855 5.09133 11.8543 5.2226C11.723 5.35388 11.6492 5.53193 11.6492 5.71758C11.6492 5.90323 11.723 6.08128 11.8543 6.21255C11.9855 6.34383 12.1636 6.41758 12.3492 6.41758Z" fill="#444444"/>
<path id="Vector_2" d="M12.3247 1.56642C11.3867 0.509423 9.66474 0.433298 8.78012 1.62505C8.63662 1.81755 8.46074 2.03892 8.27262 2.2778C7.89812 2.74855 7.47287 3.28492 7.13774 3.80117C6.60662 4.62017 6.13762 5.6098 6.16037 6.74992C6.16299 8.6023 6.93737 9.6208 7.50524 10.1038C7.53237 11.2833 7.66624 12.2747 7.89637 13.1295H5.69399C5.65812 13.1295 5.60649 13.1173 5.60474 13.0272C5.60349 12.9274 5.60349 12.8277 5.60474 12.7279V12.6833C5.60474 12.622 5.61962 12.5695 5.66337 12.5258L6.16912 11.971C6.34412 11.796 6.35287 11.46 6.16912 11.2938C5.99412 11.1363 5.71674 11.1275 5.55049 11.2938L5.42799 11.397C5.39299 11.432 5.33174 11.4145 5.33174 11.362V11.1345C5.33174 10.8808 5.10949 10.6822 4.83912 10.6822C4.60287 10.6822 4.40862 10.8983 4.40862 11.1345V11.327C4.40862 11.3708 4.34737 11.397 4.31237 11.362L4.20999 11.3113C4.04374 11.1363 3.74624 11.145 3.57124 11.3113C3.38749 11.4775 3.41024 11.8197 3.58524 11.9947L4.13212 12.5757C4.16793 12.6189 4.18716 12.6735 4.18637 12.7297V13.3553C4.18637 13.8952 4.63437 14.5785 5.52249 14.5785H8.43449C8.48349 14.6774 8.53337 14.7737 8.58499 14.8673C9.25262 16.0835 10.1644 16.8973 11.0857 17.6463C11.399 17.9 11.672 18.1398 11.9012 18.3752H10.5826C9.85637 18.3752 9.23249 18.9404 9.23249 19.6675V20.6992C9.23249 20.7622 9.16337 20.8068 9.10999 20.8068C9.00762 20.8068 8.95599 20.7613 8.87724 20.679L8.34787 20.1969C8.16849 20.0175 7.81937 19.9904 7.63999 20.1698C7.46062 20.3492 7.46937 20.6615 7.62249 20.8068L7.81062 21.0238C7.83774 21.0597 7.81062 21.1139 7.76687 21.1139L7.46937 21.1813C7.14124 21.239 7.05549 21.4412 7.07299 21.6494C7.09049 21.8577 7.27074 22.0082 7.46937 22.0082L7.91999 21.974C7.96549 21.974 7.96812 22.0379 7.94099 22.0738L7.73274 22.2785C7.55337 22.4579 7.57087 22.7685 7.75024 22.9488C7.93049 23.1282 8.29974 23.0582 8.43449 22.9785C8.56924 22.8998 8.98312 22.4623 8.98312 22.4623C9.14062 22.3048 9.31212 22.2873 9.52649 22.2654L9.62624 22.2549C10.1775 22.1902 10.7611 21.6118 10.7611 20.896V20.0123C10.7611 19.9493 10.8145 19.9047 10.8687 19.9047H12.7377C12.7465 19.9764 12.75 20.0499 12.75 20.1252C12.75 23.521 15.2385 27.1252 19.5172 27.1252C22.8702 27.1252 25.8671 24.6507 25.8689 21.1673C25.8706 20.7954 25.7682 20 25.6335 19.097C25.3027 16.9445 24.9301 14.7986 24.5161 12.6605C24.3437 11.7742 24.1871 11.0348 24.0952 10.7408C23.9491 10.277 23.7802 9.79842 23.5142 9.43967C23.3613 9.22713 23.1612 9.05284 22.9297 8.93042C22.6902 8.80883 22.4248 8.74699 22.1562 8.75017C21.7564 8.75017 21.3075 8.84205 20.9802 9.18592C20.6547 9.52717 20.625 9.93667 20.625 10.137L20.6232 14.8708L20.6215 20.5627C20.6215 21.1734 20.4622 21.4814 20.3275 21.631C20.198 21.7754 20.0037 21.8673 19.7255 21.876C19.3606 21.8848 19.211 21.7597 19.1086 21.6048C18.9686 21.3913 18.875 21.0299 18.875 20.5627C18.875 18.9045 18.4856 17.5999 17.9011 16.5228H18.5075C19.2162 16.5228 20.016 16.0547 20.016 15.0239V14.26C20.016 14.2338 20.0335 14.1988 20.051 14.1813L20.2216 13.9555L20.4474 13.679C20.5944 13.4734 20.5979 13.2249 20.4237 13.0499C20.2487 12.8749 19.9994 12.9204 19.8935 12.9852L19.694 13.0937C19.659 13.1199 19.6065 13.0937 19.6065 13.0499V12.8364C19.6065 12.5914 19.3912 12.3989 19.1462 12.3989C18.9012 12.3989 18.6825 12.5914 18.6825 12.8364V13.0709C18.6825 13.1147 18.63 13.1409 18.595 13.1147L18.3482 12.9852C18.2152 12.9265 18.0105 12.8959 17.8364 13.0709C17.6614 13.2459 17.65 13.5102 17.8189 13.679L18.3482 14.3143C18.3745 14.3405 18.3692 14.5768 18.3692 14.5768V14.7763C18.3692 14.8288 18.3281 14.8892 18.2669 14.8892H17.6062C17.3464 14.8892 17.0646 14.9032 16.8135 14.9574C16.2211 14.2618 15.571 13.6685 14.962 13.1129L14.6846 12.8592H15.9254C16.74 12.8592 17.3175 12.2939 17.3175 11.5677V10.9315C17.3175 10.8755 17.3691 10.8125 17.405 10.7688L17.4137 10.7574L17.923 10.172C18.098 9.99705 18.0192 9.68467 17.8617 9.54205C17.7042 9.4003 17.4225 9.36705 17.2562 9.54205L17.1477 9.6033C17.1127 9.6383 17.0515 9.61205 17.0515 9.5683L17.0191 9.30842C17.0191 9.10017 16.8292 8.90505 16.5422 8.90505C16.2754 8.90505 16.1249 9.15092 16.1249 9.30755V9.5683C16.1249 9.6208 16.0636 9.6383 16.0286 9.6033L15.8965 9.54205C15.7302 9.36705 15.4327 9.40205 15.2577 9.5683C15.074 9.73455 15.0827 10.0425 15.2577 10.2175L15.7827 10.732C15.8265 10.7758 15.8641 10.8283 15.8641 10.8895V11.2745C15.8641 11.334 15.8659 11.376 15.8029 11.376H13.7344C13.6766 11.0855 13.639 10.7067 13.625 10.1799C14.3355 9.71355 15.0469 8.71167 15.0469 6.7403C15.0469 4.51955 13.7414 3.10555 12.7176 1.9978C12.5802 1.84905 12.4481 1.70467 12.3239 1.56555L12.3247 1.56642ZM10.1845 2.66892C10.3201 2.48517 10.7147 2.38892 11.0157 2.72755C11.1636 2.8938 11.3089 3.05392 11.4497 3.2088C12.4884 4.3533 13.2969 5.24317 13.2969 6.7403C13.2969 8.30655 12.7465 8.6688 12.6406 8.7318C12.3221 8.9208 11.8601 9.35305 11.8706 10.0137C11.8872 11.04 11.973 11.8197 12.2425 12.4847C12.5216 13.1742 12.9626 13.6528 13.4911 14.1384L13.7274 14.3563C15.522 15.9987 17.125 17.4669 17.125 20.5627C17.125 21.2049 17.244 21.9539 17.6474 22.5664C18.0892 23.2367 18.8146 23.6505 19.7736 23.6252C20.4404 23.6068 21.1211 23.3653 21.6277 22.8027C22.13 22.2453 22.3715 21.4727 22.3715 20.5627L22.3732 14.8717L22.375 11.1074L22.4257 11.2649C22.4817 11.4434 22.6182 12.0673 22.7985 12.9957C23.2074 15.1079 23.5755 17.2279 23.9027 19.3543C24.0462 20.3142 24.1206 20.9555 24.1189 21.1568V21.1647C24.1189 23.5245 22.0705 25.3752 19.5172 25.3752C16.4136 25.3752 14.5 22.7764 14.5 20.1252C14.5 18.3139 13.2487 17.1475 12.1891 16.2874C11.3045 15.5699 10.6159 14.9312 10.1189 14.0255C9.62537 13.126 9.28062 11.8835 9.25262 9.91305C9.24474 9.41692 8.96999 9.0293 8.68037 8.80442C8.48699 8.6548 7.91037 8.11492 7.91037 6.73942V6.72192C7.90162 6.35442 7.98474 5.98605 8.14399 5.60542C8.11651 5.77211 8.15017 5.94311 8.23876 6.08696C8.32734 6.2308 8.46491 6.33781 8.62613 6.38828C8.78735 6.43876 8.96137 6.4293 9.11617 6.36166C9.27098 6.29401 9.39614 6.17273 9.46862 6.02014C9.5411 5.86754 9.55603 5.6939 9.51066 5.53117C9.46528 5.36844 9.36266 5.22758 9.22167 5.13451C9.08069 5.04143 8.91083 5.00242 8.74336 5.02463C8.57589 5.04685 8.42208 5.12881 8.31024 5.25542C8.39599 5.0918 8.49487 4.92555 8.60599 4.75492C8.90349 4.29642 9.22112 3.89742 9.55449 3.47917C9.75924 3.2228 9.96924 2.95855 10.1845 2.66892Z" fill="#444444"/>
</g>
</g>
</svg>
