<svg width="65" height="66" viewBox="0 0 65 66" fill="none" xmlns="http://www.w3.org/2000/svg">
<rect y="0.5" width="65" height="65" rx="32.5" fill="#FFDDCC"/>
<path d="M21.25 36.2505L43.75 13.7505M36.25 27.5005L40 33.1255M43.75 27.5005L38.125 36.2505M21.25 15.0005L28.75 22.5005M21.25 22.5005L28.75 15.0005" stroke="#FF7733" stroke-width="2" stroke-linecap="round" stroke-linejoin="round"/>
<path d="M18.8301 50.9648V51.7363H10.8223V50.9648H14.3477V48.9434H11.7402V44.7832H17.873V48.9434H15.2656V50.9648H18.8301ZM12.6387 48.2109H16.9648V45.5254H12.6387V48.2109ZM27.4727 50.9551V51.7363H19.4648V50.9551H27.4727ZM20.1484 45.6816V44.9199H26.7402V45.6816H25.4023V48.6016H26.7109V49.3438H20.168V48.6016H21.4766V45.6816H20.1484ZM22.3945 48.6016H24.4941V45.6816H22.3945V48.6016ZM35.627 44.0801V52.8301H34.748V44.0801H35.627ZM28.0586 50.3008C29.9189 49.1973 30.8076 47.7275 30.9688 45.9258H28.4883V45.1641H31.8867C31.8867 45.6133 31.8525 46.0479 31.7842 46.4727H32.9609V44.3047H33.8398V52.4004H32.9609V49.4219H31.4668V48.6602H32.9609V47.2344H31.6133C31.1885 48.7041 30.2559 49.9834 28.6055 50.9648L28.0586 50.3008ZM39.7871 45.6816C39.7871 46.8535 40.6025 47.957 41.9355 48.4062L41.457 49.1387C40.4756 48.7969 39.7432 48.0986 39.3574 47.2148C38.9766 48.2012 38.2246 48.9629 37.1992 49.3438L36.6816 48.6113C38.0684 48.1377 38.8643 46.9561 38.8691 45.6523V44.6172H39.7871V45.6816ZM38.0879 52.6445V49.9004H39.0352V51.8926H44.0059V52.6445H38.0879ZM42.6973 50.5254V44.0703H43.625V46.707H44.8945V47.498H43.625V50.5254H42.6973ZM52.668 44.0801V52.8301H51.7305V44.0801H52.668ZM45.4805 50.4863C47.8047 49.3779 48.9424 47.8008 49.123 45.7598H45.9004V45.0176H50.0605C50.0605 47.5811 48.9717 49.7979 45.9688 51.2383L45.4805 50.4863Z" fill="black"/>
</svg>
