<svg width="65" height="66" viewBox="0 0 65 66" fill="none" xmlns="http://www.w3.org/2000/svg">
<rect y="0.5" width="65" height="65" rx="32.5" fill="#FFDDCC"/>
<path d="M30 29.9998H37.5M42.5 17.4998V32.4998C42.5 33.1628 42.2366 33.7987 41.7678 34.2675C41.2989 34.7364 40.663 34.9998 40 34.9998H27.5C26.837 34.9998 26.2011 34.7364 25.7322 34.2675C25.2634 33.7987 25 33.1628 25 32.4998V17.4998C25 16.8367 25.2634 16.2008 25.7322 15.732C26.2011 15.2631 26.837 14.9998 27.5 14.9998H40C40.663 14.9998 41.2989 15.2631 41.7678 15.732C42.2366 16.2008 42.5 16.8367 42.5 17.4998Z" stroke="#FF7733" stroke-width="2" stroke-linecap="round" stroke-linejoin="round"/>
<path d="M22.5001 19.9998H26.2501M22.5001 24.9998H26.2501M22.5001 29.9998H26.2501M31.2501 23.7498C31.2501 24.4128 31.5135 25.0487 31.9823 25.5175C32.4511 25.9864 33.087 26.2498 33.7501 26.2498C34.4131 26.2498 35.049 25.9864 35.5178 25.5175C35.9867 25.0487 36.2501 24.4128 36.2501 23.7498C36.2501 23.0867 35.9867 22.4508 35.5178 21.982C35.049 21.5131 34.4131 21.2498 33.7501 21.2498C33.087 21.2498 32.4511 21.5131 31.9823 21.982C31.5135 22.4508 31.2501 23.0867 31.2501 23.7498Z" stroke="#FF7733" stroke-width="2" stroke-linecap="round" stroke-linejoin="round"/>
<path d="M18.8301 50.9648V51.7363H10.8223V50.9648H14.3477V48.9434H11.7402V44.7832H17.873V48.9434H15.2656V50.9648H18.8301ZM12.6387 48.2109H16.9648V45.5254H12.6387V48.2109ZM27.4727 50.9551V51.7363H19.4648V50.9551H27.4727ZM20.1484 45.6816V44.9199H26.7402V45.6816H25.4023V48.6016H26.7109V49.3438H20.168V48.6016H21.4766V45.6816H20.1484ZM22.3945 48.6016H24.4941V45.6816H22.3945V48.6016ZM35.3828 44.0801V52.8301H34.4453V44.0801H35.3828ZM28.0879 49.9395C28.4492 49.9395 28.835 49.9346 29.2402 49.9297V45.7402H28.3223V44.9785H33.3027V45.7402H32.3945V49.8125C32.8486 49.7783 33.2979 49.7344 33.7324 49.6855L33.7812 50.3691C31.8867 50.6768 29.8066 50.7061 28.1953 50.7109L28.0879 49.9395ZM30.1387 49.915C30.5781 49.9053 31.0322 49.8857 31.4863 49.8662V45.7402H30.1387V49.915ZM43.9961 44.0801V52.8496H43.0684V44.0801H43.9961ZM37.3066 50.7012V44.8906H41.4961V45.6621H38.2441V49.9102C39.8994 49.9053 40.9639 49.8564 42.1992 49.6367L42.2969 50.4082C40.9883 50.6475 39.8457 50.6963 38.0293 50.7012H37.3066ZM47.7363 44.7344C49.0449 44.7393 49.9775 45.9307 49.9824 47.8008C49.9775 49.6904 49.0449 50.8818 47.7363 50.877C46.4277 50.8818 45.4951 49.6904 45.5 47.8008C45.4951 45.9307 46.4277 44.7393 47.7363 44.7344ZM46.3887 47.8008C46.3838 49.1924 46.9404 50.0469 47.7363 50.0469C48.5469 50.0469 49.0938 49.1924 49.0938 47.8008C49.0938 46.4287 48.5469 45.5693 47.7363 45.5645C46.9404 45.5693 46.3838 46.4287 46.3887 47.8008ZM51.2812 52.8301V44.0801H52.209V47.5078H53.6152V48.2891H52.209V52.8301H51.2812Z" fill="black"/>
</svg>
