<svg width="65" height="66" viewBox="0 0 65 66" fill="none" xmlns="http://www.w3.org/2000/svg">
<rect y="0.5" width="65" height="65" rx="32.5" fill="#FFDDCC"/>
<path d="M39.478 16.1084C39.9069 16.2861 40.2967 16.5465 40.625 16.8748C40.9533 17.2031 41.2137 17.5929 41.3914 18.0218C41.5691 18.4508 41.6605 18.9105 41.6605 19.3748C41.6605 19.8391 41.5691 20.2988 41.3914 20.7278C41.2137 21.1567 40.9533 21.5465 40.625 21.8748L27.5 34.9998H22.5V29.9998L35.625 16.8748M34.375 18.1248L39.375 23.1248" stroke="#FF7733" stroke-width="2" stroke-linecap="round" stroke-linejoin="round"/>
<path d="M18.3789 45.6523C18.374 46.7705 19.1504 47.8301 20.4883 48.2793L20.0195 49.002C19.0283 48.6602 18.3008 47.9766 17.9199 47.1172C17.5391 48.0596 16.7773 48.8066 15.752 49.168L15.2539 48.4453C16.6211 47.9814 17.4463 46.8486 17.4512 45.6426V45.4082H15.5273V44.6562H20.2637V45.4082H18.3789V45.6523ZM16.416 50.5352V49.7832H22.1973V52.8301H21.2695V50.5352H16.416ZM21.2695 49.3535V44.0801H22.1973V46.3262H23.4668V47.1074H22.1973V49.3535H21.2695ZM27.0703 45.3887C27.0654 46.6143 27.8613 47.708 29.1895 48.1426L28.6816 48.8652C27.7197 48.5137 27.0117 47.8398 26.6309 46.9609C26.2549 47.9619 25.4932 48.748 24.4336 49.1289L23.9355 48.3867C25.332 47.9082 26.1426 46.7412 26.1523 45.4277V44.5684H27.0703V45.3887ZM25.3711 51.1602C25.3662 50.1006 26.4893 49.4854 28.3301 49.4902C30.1611 49.4854 31.2842 50.1006 31.2891 51.1602C31.2842 52.2148 30.1611 52.8154 28.3301 52.8105C26.4893 52.8154 25.3662 52.2148 25.3711 51.1602ZM26.2891 51.1602C26.2842 51.7412 27.0459 52.083 28.3301 52.0781C29.6045 52.083 30.3662 51.7412 30.3711 51.1602C30.3662 50.5596 29.6045 50.2129 28.3301 50.2129C27.0459 50.2129 26.2842 50.5596 26.2891 51.1602ZM28.4863 46.6191V45.8574H30.332V44.0801H31.2598V49.2461H30.332V46.6191H28.4863ZM39.4238 44.0801V47.625H40.8301V48.3965H39.4238V52.8301H38.5059V44.0801H39.4238ZM32.5586 46.209V45.4473H34.7168V44.1973H35.6445V45.4473H37.7441V46.209H32.5586ZM33.0078 48.8848C33.0078 47.6934 33.9258 46.8535 35.1855 46.8535C36.4404 46.8535 37.3584 47.6934 37.3633 48.8848C37.3584 50.0859 36.4404 50.9209 35.1855 50.9258C33.9258 50.9209 33.0078 50.0859 33.0078 48.8848ZM33.8965 48.8848C33.8916 49.6465 34.4385 50.1543 35.1855 50.1445C35.9277 50.1543 36.4697 49.6465 36.4746 48.8848C36.4697 48.1377 35.9277 47.6201 35.1855 47.6152C34.4385 47.6201 33.8916 48.1377 33.8965 48.8848ZM48.5254 44.0801V52.8301H47.5879V44.0801H48.5254ZM41.3379 50.4863C43.6621 49.3779 44.7998 47.8008 44.9805 45.7598H41.7578V45.0176H45.918C45.918 47.5811 44.8291 49.7979 41.8262 51.2383L41.3379 50.4863Z" fill="black"/>
</svg>
