<svg width="25" height="25" viewBox="0 0 25 25" fill="none" xmlns="http://www.w3.org/2000/svg">
<g id="icon / jam-icons / outline &#38; logos / instagram">
<path id="Vector" d="M16.62 2.55762H8.61156C7.04675 2.55946 5.54658 3.18196 4.44018 4.28854C3.33379 5.39512 2.71154 6.8954 2.70996 8.46021L2.70996 16.4686C2.7118 18.0334 3.3343 19.5336 4.44088 20.64C5.54746 21.7464 7.04775 22.3686 8.61256 22.3702H16.621C18.1858 22.3684 19.6859 21.7459 20.7923 20.6393C21.8987 19.5327 22.521 18.0324 22.5226 16.4676V8.45922C22.5207 6.89441 21.8982 5.39423 20.7916 4.28784C19.6851 3.18144 18.1848 2.55919 16.62 2.55762V2.55762ZM20.5299 16.4676C20.5299 16.9811 20.4288 17.4895 20.2323 17.9639C20.0358 18.4383 19.7478 18.8693 19.3847 19.2324C19.0216 19.5954 18.5906 19.8834 18.1162 20.0799C17.6418 20.2764 17.1334 20.3775 16.62 20.3775H8.61156C7.57476 20.3773 6.58051 19.9652 5.84747 19.232C5.11443 18.4988 4.70263 17.5044 4.70263 16.4676V8.45922C4.7029 7.42242 5.11495 6.42817 5.84817 5.69513C6.5814 4.96209 7.57575 4.55029 8.61256 4.55029H16.621C17.6578 4.55055 18.652 4.96261 19.385 5.69583C20.1181 6.42905 20.5299 7.42341 20.5299 8.46021V16.4686V16.4676Z" fill="white"/>
<path id="Vector_2" d="M12.6158 7.33984C11.2576 7.34194 9.95575 7.88246 8.99551 8.84289C8.03526 9.80332 7.495 11.1053 7.49316 12.4634C7.49474 13.8219 8.03502 15.1243 8.99551 16.085C9.956 17.0456 11.2583 17.5862 12.6168 17.588C13.9754 17.5864 15.2779 17.046 16.2386 16.0853C17.1993 15.1246 17.7398 13.8221 17.7413 12.4634C17.7392 11.105 17.1984 9.80278 16.2376 8.84248C15.2767 7.88218 13.9742 7.34215 12.6158 7.34084V7.33984ZM12.6158 15.5953C11.7854 15.5953 10.989 15.2655 10.4019 14.6783C9.81471 14.0912 9.48484 13.2948 9.48484 12.4644C9.48484 11.6341 9.81471 10.8377 10.4019 10.2505C10.989 9.66337 11.7854 9.33351 12.6158 9.33351C13.4461 9.33351 14.2425 9.66337 14.8297 10.2505C15.4168 10.8377 15.7467 11.6341 15.7467 12.4644C15.7467 13.2948 15.4168 14.0912 14.8297 14.6783C14.2425 15.2655 13.4461 15.5953 12.6158 15.5953Z" fill="white"/>
<path id="Vector_3" d="M17.7503 8.60599C18.4282 8.60599 18.9778 8.0564 18.9778 7.37844C18.9778 6.70047 18.4282 6.15088 17.7503 6.15088C17.0723 6.15088 16.5227 6.70047 16.5227 7.37844C16.5227 8.0564 17.0723 8.60599 17.7503 8.60599Z" fill="white"/>
</g>
</svg>
