<svg width="25" height="25" viewBox="0 0 25 25" fill="none" xmlns="http://www.w3.org/2000/svg">
<g id="icon / jam-icons / outline &#38; logos / linkedin">
<path id="Vector" d="M22.1501 14.1872V21.5099H17.9048V14.6775C17.9048 12.9607 17.2905 11.7897 15.7543 11.7897C14.5814 11.7897 13.8827 12.5796 13.5761 13.3427C13.464 13.6156 13.4352 13.9957 13.4352 14.3778V21.5099H9.18786C9.18786 21.5099 9.24541 9.93892 9.18786 8.73915H13.4352V10.5492L13.4074 10.5909H13.4352V10.5492C13.9988 9.6809 15.0061 8.43945 17.2617 8.43945C20.0553 8.43945 22.1501 10.2654 22.1501 14.1872ZM4.74602 2.5835C3.29419 2.5835 2.34351 3.53617 2.34351 4.78953C2.34351 6.0151 3.26641 6.99655 4.69045 6.99655H4.71824C6.19984 6.99655 7.11977 6.0151 7.11977 4.78953C7.09396 3.53617 6.20083 2.5835 4.74702 2.5835H4.74602ZM2.59557 21.5099H6.84091V8.73915H2.59557V21.5099Z" fill="white"/>
</g>
</svg>
