<svg width="29" height="28" viewBox="0 0 29 28" fill="none" xmlns="http://www.w3.org/2000/svg">
<g id="tabler:smart-home">
<g id="Group">
<path id="Vector" d="M22.6667 10.1617L16.4448 5.32239C15.8988 4.89762 15.2268 4.66699 14.535 4.66699C13.8432 4.66699 13.1712 4.89762 12.6252 5.32239L6.40216 10.1617C6.02818 10.4526 5.7256 10.825 5.51754 11.2506C5.30948 11.6763 5.20144 12.1438 5.20166 12.6176V21.0176C5.20166 21.6364 5.44749 22.2299 5.88508 22.6675C6.32266 23.1051 6.91616 23.3509 7.53499 23.3509H21.535C22.1538 23.3509 22.7473 23.1051 23.1849 22.6675C23.6225 22.2299 23.8683 21.6364 23.8683 21.0176V12.6176C23.8683 11.6574 23.425 10.7509 22.6667 10.1617Z" stroke="#444444" stroke-width="2" stroke-linecap="round" stroke-linejoin="round"/>
<path id="Vector_2" d="M19.1666 17.5C16.5883 19.0552 12.4093 19.0552 9.83331 17.5" stroke="#444444" stroke-width="2" stroke-linecap="round" stroke-linejoin="round"/>
</g>
</g>
</svg>
