<svg width="29" height="28" viewBox="0 0 29 28" fill="none" xmlns="http://www.w3.org/2000/svg">
<g id="tabler:align-box-left-bottom">
<path id="Vector" d="M11 19.8333H8.66667M15.6667 16.3333H8.66667M13.3333 12.8333H8.66667M4 5.83333C4 5.21449 4.24583 4.621 4.68342 4.18342C5.121 3.74583 5.71449 3.5 6.33333 3.5H22.6667C23.2855 3.5 23.879 3.74583 24.3166 4.18342C24.7542 4.621 25 5.21449 25 5.83333V22.1667C25 22.7855 24.7542 23.379 24.3166 23.8166C23.879 24.2542 23.2855 24.5 22.6667 24.5H6.33333C5.71449 24.5 5.121 24.2542 4.68342 23.8166C4.24583 23.379 4 22.7855 4 22.1667V5.83333Z" stroke="#444444" stroke-width="2" stroke-linecap="round" stroke-linejoin="round"/>
</g>
</svg>
