<svg width="24" height="25" viewBox="0 0 24 25" fill="none" xmlns="http://www.w3.org/2000/svg">
<g id="icon / jam-icons / outline &#38; logos / twitter">
<path id="Vector" d="M21.9237 6.43471C21.1798 6.75959 20.3919 6.97261 19.5857 7.06685C20.4319 6.56991 21.0683 5.78184 21.3759 4.8499C20.5741 5.31664 19.6995 5.64539 18.7888 5.82242C18.4053 5.42072 17.944 5.10136 17.433 4.88382C16.922 4.66629 16.372 4.55514 15.8167 4.55716C13.568 4.55716 11.745 6.35334 11.745 8.56632C11.745 8.8799 11.7807 9.18655 11.8502 9.47929C10.2372 9.40258 8.65784 8.99046 7.21301 8.26924C5.76818 7.54802 4.48955 6.53353 3.45872 5.29051C3.09733 5.90023 2.90738 6.59625 2.90895 7.30502C2.90964 7.96789 3.0755 8.62013 3.39153 9.20281C3.70756 9.7855 4.1638 10.2802 4.71903 10.6423C4.07348 10.6215 3.44187 10.4492 2.87521 10.1392V10.1888C2.87521 12.1319 4.27941 13.7524 6.1401 14.1216C5.7904 14.2144 5.43014 14.2614 5.06834 14.2615C4.80536 14.2615 4.55032 14.2367 4.30124 14.1871C4.56728 14.9888 5.07638 15.6878 5.75785 16.187C6.43932 16.6862 7.25933 16.9608 8.10399 16.9727C6.6552 18.0886 4.87663 18.6915 3.04788 18.6865C2.71842 18.6865 2.3949 18.6666 2.07635 18.6309C3.94325 19.8125 6.10794 20.4383 8.31735 20.435C15.8067 20.435 19.9012 14.325 19.9012 9.02677L19.8873 8.50777C20.6861 7.94576 21.376 7.24334 21.9237 6.43471Z" fill="white"/>
</g>
</svg>
