<svg width="25" height="25" viewBox="0 0 25 25" fill="none" xmlns="http://www.w3.org/2000/svg">
<g id="icon / jam-icons / outline &#38; logos / youtube">
<path id="Vector" d="M18.5005 5.55129H6.92256C4.65004 5.55129 2.8092 7.37228 2.8092 9.619V15.343C2.8092 17.5897 4.65104 19.4117 6.92256 19.4117H18.5005C20.773 19.4117 22.6139 17.5897 22.6139 15.343V9.619C22.6139 7.37228 20.772 5.55029 18.5005 5.55029V5.55129ZM15.7189 12.7588L10.3036 15.3142C10.2705 15.3301 10.234 15.3374 10.1974 15.3354C10.1608 15.3334 10.1253 15.3221 10.0942 15.3027C10.0631 15.2833 10.0374 15.2564 10.0195 15.2244C10.0017 15.1923 9.99217 15.1563 9.99195 15.1197V9.85121C9.99261 9.81437 10.0026 9.77829 10.021 9.74634C10.0393 9.71439 10.0655 9.68761 10.097 9.66849C10.1285 9.64937 10.1643 9.63854 10.2011 9.637C10.2379 9.63546 10.2745 9.64326 10.3075 9.65968L15.7239 12.3738C15.7599 12.3918 15.7902 12.4196 15.8112 12.454C15.8322 12.4884 15.843 12.5281 15.8425 12.5684C15.842 12.6087 15.8301 12.648 15.8083 12.6819C15.7864 12.7158 15.7554 12.7428 15.7189 12.7598V12.7588Z" fill="white"/>
</g>
</svg>
