<svg
                xmlns="http://www.w3.org/2000/svg"
                width="20"
                height="20"
                viewBox="0 0 20 20"
                fill="none"
              >
                <path
                  d="M7.5 10C7.5 10.663 7.76339 11.2989 8.23223 11.7678C8.70107 12.2366 9.33696 12.5 10 12.5C10.663 12.5 11.2989 12.2366 11.7678 11.7678C12.2366 11.2989 12.5 10.663 12.5 10C12.5 9.33696 12.2366 8.70107 11.7678 8.23223C11.2989 7.76339 10.663 7.5 10 7.5C9.33696 7.5 8.70107 7.76339 8.23223 8.23223C7.76339 8.70107 7.5 9.33696 7.5 10Z"
                  stroke="#808080"
                  strokeWidth="1.66667"
                  strokeLinecap="round"
                  strokeLinejoin="round"
                />
                <path
                  d="M9.28583 14.9675C6.60167 14.7217 4.33917 13.0667 2.5 10C4.5 6.66667 7 5 10 5C13 5 15.5 6.66667 17.5 10C17.315 10.3083 17.1258 10.6017 16.9333 10.8808M12.5 15.8333L14.1667 17.5L17.5 14.1667"
                  stroke="#808080"
                  strokeWidth="1.66667"
                  strokeLinecap="round"
                  strokeLinejoin="round"
                />
              </svg>