<svg width="29" height="28" viewBox="0 0 29 28" fill="none" xmlns="http://www.w3.org/2000/svg">
<g id="ant-design:home-filled">
<path id="Vector" d="M26.6308 13.8084L15.3679 2.55369C15.2868 2.47243 15.1905 2.40797 15.0844 2.36399C14.9784 2.32 14.8647 2.29736 14.7499 2.29736C14.6351 2.29736 14.5214 2.32 14.4154 2.36399C14.3094 2.40797 14.213 2.47243 14.1319 2.55369L2.86904 13.8084C2.54092 14.1365 2.35498 14.5822 2.35498 15.047C2.35498 16.0123 3.13975 16.797 4.10498 16.797H5.2917V24.8279C5.2917 25.3119 5.68272 25.7029 6.1667 25.7029H12.9999V19.5779H16.0624V25.7029H23.3331C23.8171 25.7029 24.2081 25.3119 24.2081 24.8279V16.797H25.3948C25.8597 16.797 26.3054 16.6138 26.6335 16.283C27.3144 15.5994 27.3144 14.492 26.6308 13.8084Z" fill="#1A1A1A"/>
</g>
</svg>
