<svg width="29" height="28" viewBox="0 0 29 28" fill="none" xmlns="http://www.w3.org/2000/svg">
<g id="fluent:person-32-filled">
<path id="Vector" d="M14.75 14C16.3745 14 17.9324 13.3547 19.081 12.206C20.2297 11.0574 20.875 9.49945 20.875 7.875C20.875 6.25055 20.2297 4.69263 19.081 3.54397C17.9324 2.39531 16.3745 1.75 14.75 1.75C13.1255 1.75 11.5676 2.39531 10.419 3.54397C9.27031 4.69263 8.625 6.25055 8.625 7.875C8.625 9.49945 9.27031 11.0574 10.419 12.206C11.5676 13.3547 13.1255 14 14.75 14ZM7.3125 15.75C6.50027 15.75 5.72132 16.0727 5.14699 16.647C4.57266 17.2213 4.25 18.0003 4.25 18.8125V19.25C4.25 21.3439 5.58263 23.1149 7.47438 24.3189C9.37663 25.5299 11.9517 26.25 14.75 26.25C17.5483 26.25 20.1225 25.5299 22.0256 24.3189C23.9174 23.1149 25.25 21.3439 25.25 19.25V18.8125C25.25 18.0003 24.9273 17.2213 24.353 16.647C23.7787 16.0727 22.9997 15.75 22.1875 15.75H7.3125Z" fill="#1A1A1A"/>
</g>
</svg>
