<svg width="28" height="28" viewBox="0 0 28 28" fill="none" xmlns="http://www.w3.org/2000/svg">
<g id="ic:round-notifications">
<path id="Vector" d="M13.9993 25.6665C15.2827 25.6665 16.3327 24.6165 16.3327 23.3332H11.666C11.666 23.952 11.9118 24.5455 12.3494 24.9831C12.787 25.4207 13.3805 25.6665 13.9993 25.6665ZM20.9993 18.6665V12.8332C20.9993 9.2515 19.086 6.25317 15.7493 5.45984V4.6665C15.7493 3.69817 14.9677 2.9165 13.9993 2.9165C13.031 2.9165 12.2493 3.69817 12.2493 4.6665V5.45984C8.90099 6.25317 6.99933 9.23984 6.99933 12.8332V18.6665L5.49433 20.1715C4.75933 20.9065 5.27266 22.1665 6.31099 22.1665H21.676C22.7143 22.1665 23.2393 20.9065 22.5043 20.1715L20.9993 18.6665Z" fill="#808080"/>
<rect id="Rectangle 58" x="24" width="4" height="4" rx="2" fill="#FF5500"/>
</g>
</svg>
