<svg width="33" height="32" viewBox="0 0 33 32" fill="none" xmlns="http://www.w3.org/2000/svg">
<g id="material-symbols:feed">
<path id="Vector" d="M6.91667 28C6.18334 28 5.55534 27.7387 5.03267 27.216C4.51 26.6933 4.24911 26.0658 4.25 25.3333V6.66667C4.25 5.93334 4.51134 5.30534 5.034 4.78267C5.55667 4.26 6.18422 3.99911 6.91667 4H21.5833L28.25 10.6667V25.3333C28.25 26.0667 27.9887 26.6947 27.466 27.2173C26.9433 27.74 26.3158 28.0009 25.5833 28H6.91667ZM9.58334 22.6667H22.9167V20H9.58334V22.6667ZM9.58334 17.3333H22.9167V14.6667H9.58334V17.3333ZM20.25 12H25.5833L20.25 6.66667V12ZM9.58334 12H16.25V9.33334H9.58334V12Z" fill="#1A1A1A"/>
</g>
</svg>
