<svg width="42" height="42" viewBox="0 0 42 42" fill="none" xmlns="http://www.w3.org/2000/svg">
<path d="M32.1973 8.96191C32.7715 8.96191 33.3047 9.06445 33.7969 9.26953C34.2891 9.47461 34.7266 9.76855 35.1094 10.1514C35.4922 10.5342 35.7793 10.9648 35.9707 11.4434C36.1621 11.9219 36.2715 12.4619 36.2988 13.0635C36.2988 13.6104 36.1963 14.1367 35.9912 14.6426C35.7861 15.1484 35.4922 15.5928 35.1094 15.9756L18.8262 32.2793C18.4434 32.6621 17.999 32.9561 17.4932 33.1611C16.9873 33.3662 16.4609 33.4756 15.9141 33.4893C15.3672 33.4893 14.8408 33.3867 14.335 33.1816C13.8291 32.9766 13.3848 32.6758 13.002 32.2793L5.57812 24.8555C5.19531 24.4727 4.90137 24.0283 4.69629 23.5225C4.49121 23.0166 4.38184 22.4902 4.36816 21.9434C4.36816 21.3691 4.47754 20.8359 4.69629 20.3438C4.91504 19.8516 5.20898 19.4141 5.57812 19.0312C5.94727 18.6484 6.37793 18.3613 6.87012 18.1699C7.3623 17.9785 7.90234 17.8691 8.49023 17.8418C9.03711 17.8418 9.56348 17.9443 10.0693 18.1494C10.5752 18.3545 11.0195 18.6484 11.4023 19.0312L15.9141 23.543L29.2852 10.1514C29.668 9.76855 30.1123 9.47461 30.6182 9.26953C31.124 9.06445 31.6504 8.96191 32.1973 8.96191Z" fill="#FF5500"/>
</svg>
