<svg width="42" height="42" viewBox="0 0 42 42" fill="none" xmlns="http://www.w3.org/2000/svg">
<g id="tabler:hand-click">
<g id="Group">
<path id="Vector" d="M14 22.75V7.875C14 7.17881 14.2766 6.51113 14.7688 6.01884C15.2611 5.52656 15.9288 5.25 16.625 5.25C17.3212 5.25 17.9889 5.52656 18.4812 6.01884C18.9734 6.51113 19.25 7.17881 19.25 7.875V21M19.25 20.125V16.625C19.25 15.9288 19.5266 15.2611 20.0188 14.7688C20.5111 14.2766 21.1788 14 21.875 14C22.5712 14 23.2389 14.2766 23.7312 14.7688C24.2234 15.2611 24.5 15.9288 24.5 16.625V21M24.5 18.375C24.5 17.6788 24.7766 17.0111 25.2688 16.5188C25.7611 16.0266 26.4288 15.75 27.125 15.75C27.8212 15.75 28.4889 16.0266 28.9812 16.5188C29.4734 17.0111 29.75 17.6788 29.75 18.375V21" stroke="black" stroke-width="3" stroke-linecap="round" stroke-linejoin="round"/>
<path id="Vector_2" d="M29.75 20.125C29.75 19.4288 30.0266 18.7611 30.5188 18.2688C31.0111 17.7766 31.6788 17.5 32.375 17.5C33.0712 17.5 33.7389 17.7766 34.2312 18.2688C34.7234 18.7611 35 19.4288 35 20.125V28C35 30.7848 33.8938 33.4555 31.9246 35.4246C29.9555 37.3938 27.2848 38.5 24.5 38.5H21H21.364C19.6251 38.5003 17.9133 38.0687 16.3824 37.244C14.8515 36.4193 13.5494 35.2273 12.593 33.775L12.25 33.25C11.704 32.4117 9.78775 29.071 6.4995 23.226C6.16429 22.6302 6.07475 21.9271 6.24992 21.2663C6.42509 20.6054 6.85116 20.039 7.4375 19.6875C8.06204 19.3128 8.79388 19.1575 9.51678 19.2462C10.2397 19.335 10.9122 19.6628 11.4275 20.1775L14 22.75M8.75 5.25L7 3.5M7 12.25H5.25M24.5 5.25L26.25 3.5M26.25 10.5H28" stroke="black" stroke-width="3" stroke-linecap="round" stroke-linejoin="round"/>
</g>
</g>
</svg>
