<svg width="42" height="42" viewBox="0 0 42 42" fill="none" xmlns="http://www.w3.org/2000/svg">
<g id="tabler:photo-edit">
<g id="Group">
<path id="Vector" d="M26.25 14H26.2675M19.25 35H12.25C10.8576 35 9.52226 34.4469 8.53769 33.4623C7.55312 32.4777 7 31.1424 7 29.75V12.25C7 10.8576 7.55312 9.52226 8.53769 8.53769C9.52226 7.55312 10.8576 7 12.25 7H29.75C31.1424 7 32.4777 7.55312 33.4623 8.53769C34.4469 9.52226 35 10.8576 35 12.25V19.25" stroke="black" stroke-width="3" stroke-linecap="round" stroke-linejoin="round"/>
<path id="Vector_2" d="M7 26.2502L14 19.2502C15.624 17.6874 17.626 17.6874 19.25 19.2502L24.5 24.5002L26.25 22.7502C26.7925 22.2287 27.377 21.8804 27.9773 21.7072M32.235 27.3177C32.5763 26.9764 32.9814 26.7057 33.4273 26.521C33.8732 26.3363 34.3511 26.2413 34.8338 26.2413C35.3164 26.2413 35.7943 26.3363 36.2402 26.521C36.6861 26.7057 37.0912 26.9764 37.4325 27.3177C37.7738 27.659 38.0445 28.0641 38.2292 28.51C38.4139 28.9559 38.5089 29.4338 38.5089 29.9164C38.5089 30.3991 38.4139 30.877 38.2292 31.3229C38.0445 31.7688 37.7738 32.1739 37.4325 32.5152L31.5 38.5002H26.25V33.2502L32.235 27.3177Z" stroke="black" stroke-width="3" stroke-linecap="round" stroke-linejoin="round"/>
</g>
</g>
</svg>
