<svg width="42" height="42" viewBox="0 0 42 42" fill="none" xmlns="http://www.w3.org/2000/svg">
<g id="tabler:clipboard-text">
<g id="Group">
<path id="Vector" d="M15.75 8.75H12.25C11.3217 8.75 10.4315 9.11875 9.77513 9.77513C9.11875 10.4315 8.75 11.3217 8.75 12.25V33.25C8.75 34.1783 9.11875 35.0685 9.77513 35.7249C10.4315 36.3813 11.3217 36.75 12.25 36.75H29.75C30.6783 36.75 31.5685 36.3813 32.2249 35.7249C32.8813 35.0685 33.25 34.1783 33.25 33.25V12.25C33.25 11.3217 32.8813 10.4315 32.2249 9.77513C31.5685 9.11875 30.6783 8.75 29.75 8.75H26.25" stroke="black" stroke-width="3" stroke-linecap="round" stroke-linejoin="round"/>
<path id="Vector_2" d="M15.75 21H26.25M15.75 28H26.25M15.75 8.75C15.75 7.82174 16.1187 6.9315 16.7751 6.27513C17.4315 5.61875 18.3217 5.25 19.25 5.25H22.75C23.6783 5.25 24.5685 5.61875 25.2249 6.27513C25.8813 6.9315 26.25 7.82174 26.25 8.75C26.25 9.67826 25.8813 10.5685 25.2249 11.2249C24.5685 11.8813 23.6783 12.25 22.75 12.25H19.25C18.3217 12.25 17.4315 11.8813 16.7751 11.2249C16.1187 10.5685 15.75 9.67826 15.75 8.75Z" stroke="black" stroke-width="3" stroke-linecap="round" stroke-linejoin="round"/>
</g>
</g>
</svg>
