<svg width="42" height="42" viewBox="0 0 42 42" fill="none" xmlns="http://www.w3.org/2000/svg">
<g id="tabler:zoom-question">
<g id="Group">
<path id="Vector" d="M36.75 36.75L26.25 26.25M17.5 22.75V22.7675M5.25 17.5C5.25 19.1087 5.56686 20.7016 6.18248 22.1879C6.7981 23.6741 7.70042 25.0245 8.83794 26.1621C9.97546 27.2996 11.3259 28.2019 12.8121 28.8175C14.2984 29.4331 15.8913 29.75 17.5 29.75C19.1087 29.75 20.7016 29.4331 22.1879 28.8175C23.6741 28.2019 25.0245 27.2996 26.1621 26.1621C27.2996 25.0245 28.2019 23.6741 28.8175 22.1879C29.4331 20.7016 29.75 19.1087 29.75 17.5C29.75 15.8913 29.4331 14.2984 28.8175 12.8121C28.2019 11.3259 27.2996 9.97546 26.1621 8.83794C25.0245 7.70042 23.6741 6.7981 22.1879 6.18248C20.7016 5.56686 19.1087 5.25 17.5 5.25C15.8913 5.25 14.2984 5.56686 12.8121 6.18248C11.3259 6.7981 9.97546 7.70042 8.83794 8.83794C7.70042 9.97546 6.7981 11.3259 6.18248 12.8121C5.56686 14.2984 5.25 15.8913 5.25 17.5Z" stroke="black" stroke-width="3" stroke-linecap="round" stroke-linejoin="round"/>
<path id="Vector_2" d="M17.4999 17.5C17.9404 17.5002 18.3738 17.3896 18.7603 17.1783C19.1468 16.967 19.4739 16.6619 19.7115 16.291C19.9492 15.9201 20.0896 15.4954 20.12 15.0559C20.1503 14.6165 20.0696 14.1765 19.8853 13.7764C19.7009 13.3764 19.4189 13.0292 19.0651 12.7667C18.7113 12.5043 18.2972 12.3351 17.8609 12.2748C17.4246 12.2144 16.9801 12.2648 16.5683 12.4214C16.1566 12.5779 15.7909 12.8355 15.5049 13.1705" stroke="black" stroke-width="3" stroke-linecap="round" stroke-linejoin="round"/>
</g>
</g>
</svg>
