<svg width="51" height="50" viewBox="0 0 51 50" fill="none" xmlns="http://www.w3.org/2000/svg">
<g id="tabler:address-book">
<g id="Group">
<path id="Vector" d="M21.3333 33.3335H33.8333M42.1667 12.5002V37.5002C42.1667 38.6052 41.7277 39.665 40.9463 40.4464C40.1649 41.2278 39.1051 41.6668 38 41.6668H17.1667C16.0616 41.6668 15.0018 41.2278 14.2204 40.4464C13.439 39.665 13 38.6052 13 37.5002V12.5002C13 11.3951 13.439 10.3353 14.2204 9.55388C15.0018 8.77248 16.0616 8.3335 17.1667 8.3335H38C39.1051 8.3335 40.1649 8.77248 40.9463 9.55388C41.7277 10.3353 42.1667 11.3951 42.1667 12.5002Z" stroke="black" stroke-width="3" stroke-linecap="round" stroke-linejoin="round"/>
<path id="Vector_2" d="M8.83301 16.6665H15.083M8.83301 24.9998H15.083M8.83301 33.3332H15.083M23.4163 22.9165C23.4163 24.0216 23.8553 25.0814 24.6367 25.8628C25.4181 26.6442 26.4779 27.0832 27.583 27.0832C28.6881 27.0832 29.7479 26.6442 30.5293 25.8628C31.3107 25.0814 31.7497 24.0216 31.7497 22.9165C31.7497 21.8114 31.3107 20.7516 30.5293 19.9702C29.7479 19.1888 28.6881 18.7498 27.583 18.7498C26.4779 18.7498 25.4181 19.1888 24.6367 19.9702C23.8553 20.7516 23.4163 21.8114 23.4163 22.9165Z" stroke="black" stroke-width="3" stroke-linecap="round" stroke-linejoin="round"/>
</g>
</g>
</svg>
