<svg width="30" height="30" viewBox="0 0 30 30" fill="none" xmlns="http://www.w3.org/2000/svg">
<g clip-path="url(#clip0_269_4464)">
<path fill-rule="evenodd" clip-rule="evenodd" d="M15.0071 16.6908L19.2167 20.9011C19.4401 21.1245 19.743 21.25 20.0589 21.25C20.3748 21.25 20.6778 21.1245 20.9011 20.9011C21.1245 20.6778 21.25 20.3748 21.25 20.0589C21.25 19.743 21.1245 19.4401 20.9011 19.2167L16.69 15.0071L20.9003 10.7976C21.0109 10.687 21.0986 10.5557 21.1584 10.4112C21.2182 10.2667 21.249 10.1118 21.2489 9.95546C21.2489 9.79908 21.2181 9.64424 21.1582 9.49978C21.0983 9.35532 21.0105 9.22406 20.8999 9.11351C20.7893 9.00296 20.658 8.91528 20.5136 8.85547C20.3691 8.79566 20.2142 8.76489 20.0578 8.76493C19.9015 8.76497 19.7466 8.7958 19.6021 8.85568C19.4577 8.91556 19.3264 9.00331 19.2159 9.11391L15.0071 13.3235L10.7976 9.11391C10.6878 9.00013 10.5564 8.90936 10.4112 8.84689C10.2659 8.78442 10.1097 8.7515 9.95161 8.75005C9.79351 8.7486 9.63671 8.77866 9.49035 8.83846C9.34399 8.89826 9.211 8.98661 9.09915 9.09835C8.9873 9.2101 8.89882 9.343 8.83888 9.48931C8.77894 9.63561 8.74874 9.79239 8.75004 9.95049C8.75134 10.1086 8.78411 10.2649 8.84645 10.4102C8.90878 10.5555 8.99943 10.6869 9.1131 10.7968L13.3242 15.0071L9.11389 19.2167C8.89052 19.4401 8.76503 19.743 8.76503 20.0589C8.76503 20.3748 8.89052 20.6778 9.11389 20.9011C9.33727 21.1245 9.64023 21.25 9.95612 21.25C10.272 21.25 10.575 21.1245 10.7984 20.9011L15.0071 16.69V16.6908Z" fill="#1A1A1A"/>
</g>
<defs>
<clipPath id="clip0_269_4464">
<rect width="30" height="30" fill="white"/>
</clipPath>
</defs>
</svg>
