<svg width="44" height="44" viewBox="0 0 44 44" fill="none" xmlns="http://www.w3.org/2000/svg">
<path d="M29.7152 28.1429C29.7152 28.1429 29.8132 28.0737 29.9697 27.9555C32.3155 26.1638 33.7882 23.5673 33.7882 20.6766C33.7882 15.2875 28.6588 10.9143 22.3329 10.9143C16.0071 10.9143 10.8777 15.2875 10.8777 20.6766C10.8777 26.0682 16.0071 30.2905 22.3329 30.2905C22.8726 30.2905 23.7585 30.2553 24.9905 30.1849C26.5968 31.2159 28.9413 32.0621 30.9931 32.0621C31.6282 32.0621 31.9273 31.5466 31.52 31.021C30.9014 30.2716 30.0487 29.0708 29.7177 28.1416L29.7152 28.1429Z" stroke="#444444" stroke-width="2" stroke-linecap="round" stroke-linejoin="round"/>
<path d="M16.6028 23.375C19.7848 26.5184 24.876 26.5184 28.058 23.375" stroke="#444444" stroke-width="2" stroke-linecap="round" stroke-linejoin="round"/>
<rect x="25.9141" y="6.26782" width="10.9637" height="10.9633" rx="5.48163" fill="#FF5500"/>
<path d="M30.1033 10.4613L31.3931 9.17163V14.3304" stroke="white" stroke-width="1.28975" stroke-linecap="round" stroke-linejoin="round"/>
</svg>
