<svg width="30" height="28" viewBox="0 0 30 28" fill="none" xmlns="http://www.w3.org/2000/svg">
<g id="Group">
<path id="Vector" d="M23.3382 21.5522C23.3382 21.5522 23.4495 21.4737 23.6271 21.3396C26.2892 19.3061 27.9604 16.3595 27.9604 13.0789C27.9604 6.96296 22.1393 2 14.9604 2C7.78156 2 1.96045 6.96296 1.96045 13.0789C1.96045 19.1977 7.78156 23.9894 14.9604 23.9894C15.5729 23.9894 16.5782 23.9495 17.9764 23.8696C19.7993 25.0397 22.46 26 24.7884 26C25.5092 26 25.8487 25.4149 25.3864 24.8185C24.6844 23.968 23.7167 22.6053 23.3411 21.5507L23.3382 21.5522Z" stroke="#444444" stroke-width="2.5" stroke-linecap="round" stroke-linejoin="round"/>
<path id="Vector_2" d="M8.45746 16.1411C12.0686 19.7085 17.8463 19.7085 21.4575 16.1411" stroke="#444444" stroke-width="2.5" stroke-linecap="round" stroke-linejoin="round"/>
</g>
</svg>
