<svg width="44" height="44" viewBox="0 0 44 44" fill="none" xmlns="http://www.w3.org/2000/svg">
<path d="M17.9358 28.9376V30.3703C17.9358 31.5102 18.3886 32.6035 19.1947 33.4095C20.0008 34.2156 21.0941 34.6684 22.234 34.6684C23.374 34.6684 24.4673 34.2156 25.2734 33.4095C26.0795 32.6035 26.5323 31.5102 26.5323 30.3703V28.9376M19.3685 11.7453C19.3685 10.9853 19.6704 10.2565 20.2078 9.71914C20.7452 9.18177 21.4741 8.87988 22.234 8.87988C22.994 8.87988 23.7229 9.18177 24.2603 9.71914C24.7977 10.2565 25.0996 10.9853 25.0996 11.7453C26.7449 12.5233 28.1476 13.7343 29.1572 15.2486C30.1668 16.763 30.7453 18.5235 30.8306 20.3414V24.6395C30.9384 25.5302 31.2539 26.3832 31.7516 27.1297C32.2493 27.8763 32.9153 28.4955 33.6961 28.9376H10.772C11.5527 28.4955 12.2188 27.8763 12.7165 27.1297C13.2142 26.3832 13.5297 25.5302 13.6375 24.6395V20.3414C13.7228 18.5235 14.3013 16.763 15.3109 15.2486C16.3205 13.7343 17.7231 12.5233 19.3685 11.7453Z" stroke="#444444" stroke-width="2" stroke-linecap="round" stroke-linejoin="round"/>
<rect x="31.6689" y="5.25537" width="5.103" height="5.10282" rx="2.55141" fill="#FF5500"/>
</svg>
