<svg width="41" height="40" viewBox="0 0 41 40" fill="none" xmlns="http://www.w3.org/2000/svg">
<g id="ic:round-notifications">
<path id="Vector" d="M16.5 27.5V29C16.5 30.1935 16.9741 31.3381 17.818 32.182C18.6619 33.0259 19.8065 33.5 21 33.5C22.1935 33.5 23.3381 33.0259 24.182 32.182C25.0259 31.3381 25.5 30.1935 25.5 29V27.5M18 9.5C18 8.70435 18.3161 7.94129 18.8787 7.37868C19.4413 6.81607 20.2044 6.5 21 6.5C21.7956 6.5 22.5587 6.81607 23.1213 7.37868C23.6839 7.94129 24 8.70435 24 9.5C25.7226 10.3145 27.1911 11.5825 28.2481 13.1679C29.305 14.7534 29.9107 16.5966 30 18.5V23C30.1129 23.9326 30.4432 24.8256 30.9642 25.6072C31.4853 26.3888 32.1826 27.0371 33 27.5H9C9.81741 27.0371 10.5147 26.3888 11.0358 25.6072C11.5568 24.8256 11.8871 23.9326 12 23V18.5C12.0893 16.5966 12.695 14.7534 13.7519 13.1679C14.8089 11.5825 16.2774 10.3145 18 9.5Z" stroke="#444444" stroke-width="2.5" stroke-linecap="round" stroke-linejoin="round"/>
<rect id="Rectangle 58" x="30.7091" y="3" width="5.25131" height="5.25131" rx="2.62566" fill="#FF5500"/>
</g>
</svg>
