<svg width="24" height="24" viewBox="0 0 24 24" fill="none" xmlns="http://www.w3.org/2000/svg">
<g id="Frame 2608805">
<g id="Group">
<path id="Vector" d="M3 5C3 4.46957 3.21071 3.96086 3.58579 3.58579C3.96086 3.21071 4.46957 3 5 3H19C19.5304 3 20.0391 3.21071 20.4142 3.58579C20.7893 3.96086 21 4.46957 21 5V19C21 19.5304 20.7893 20.0391 20.4142 20.4142C20.0391 20.7893 19.5304 21 19 21H5C4.46957 21 3.96086 20.7893 3.58579 20.4142C3.21071 20.0391 3 19.5304 3 19V5Z" stroke="#FF5500" stroke-width="2" stroke-linecap="round" stroke-linejoin="round"/>
<path id="Vector_2" d="M13.5 15L15 16M12 8C12.7956 8 13.5587 8.21071 14.1213 8.58579C14.6839 8.96086 15 9.46957 15 10V14C15 14.5304 14.6839 15.0391 14.1213 15.4142C13.5587 15.7893 12.7956 16 12 16C11.2044 16 10.4413 15.7893 9.87868 15.4142C9.31607 15.0391 9 14.5304 9 14V10C9 9.46957 9.31607 8.96086 9.87868 8.58579C10.4413 8.21071 11.2044 8 12 8Z" stroke="#FF5500" stroke-width="2" stroke-linecap="round" stroke-linejoin="round"/>
</g>
</g>
</svg>
